<svg version="1.0" xmlns="http://www.w3.org/2000/svg" width="698" height="524" preserveAspectRatio="xMidYMid meet" style=""><rect id="backgroundrect" width="100%" height="100%" x="0" y="0" fill="none" stroke="none"/>
<metadata>
Created by potrace 1.15, written by Peter Selinger 2001-2017
</metadata>

<g class="currentLayer" style=""><title>Layer 1</title><rect fill="#0f0f60" stroke="#222222" style="color: rgb(0, 0, 0);" stroke-width="2" stroke-linejoin="round" stroke-dashoffset="" fill-rule="nonzero" id="svg_8" x="1" y="41" width="695" height="461" class="selected" fill-opacity="1" opacity="1"/><g transform="translate(0, 524) scale(0.1, -0.1)" fill="#ffffff" stroke="none" id="svg_1" class="" fill-opacity="1">
<path d="M70 3300 l0 -190 575 0 575 0 0 190 0 190 -575 0 -575 0 0 -190z" id="svg_2" fill="#ffffff" fill-opacity="1"/>
<path d="M2220 3481 c-272 -39 -515 -221 -637 -478 -62 -130 -78 -208 -77 -378 1 -205 43 -343 151 -493 169 -238 410 -365 693 -366 136 -1 237 22 365 84 117 57 193 115 266 202 l52 62 -43 36 c-23 19 -88 70 -143 112 l-101 77 -60 -60 c-39 -39 -86 -73 -135 -97 -73 -36 -77 -37 -191 -37 -115 0 -117 0 -194 39 -107 52 -200 144 -250 247 -78 158 -57 353 50 486 62 76 118 122 194 160 68 34 84 38 171 41 142 6 266 -37 343 -117 17 -17 33 -31 38 -31 8 0 31 16 182 124 53 38 99 72 101 76 8 13 -67 97 -130 147 -74 59 -185 114 -287 142 -85 24 -266 35 -358 22z" id="svg_3" fill="#ffffff" fill-opacity="1"/>
<path d="M3460 2620 l0 -860 188 2 187 3 2 265 c2 146 3 295 3 333 l0 67 308 -2 307 -3 3 -332 2 -333 185 0 185 0 0 860 0 860 -185 0 -185 0 -2 -332 -3 -333 -307 -3 c-170 -1 -308 1 -308 5 0 5 -1 154 -3 333 l-2 325 -187 3 -188 2 0 -860z" id="svg_4" fill="#ffffff" fill-opacity="1"/>
<path d="M5834 3456 c-341 -90 -591 -388 -625 -743 -29 -306 79 -566 316 -766 184 -155 454 -219 704 -167 219 45 379 147 519 332 160 212 207 533 117 799 -86 252 -297 456 -560 539 -57 18 -100 23 -225 26 -139 4 -164 2 -246 -20z m384 -357 c152 -52 285 -200 321 -359 39 -167 -20 -354 -148 -472 -74 -69 -129 -100 -214 -121 -175 -44 -323 -1 -458 132 -93 93 -140 191 -147 310 -9 161 36 280 147 392 136 136 320 179 499 118z" id="svg_5" fill="#ffffff" fill-opacity="1"/>
<path d="M74 2811 c-2 -2 -4 -89 -4 -193 l0 -188 383 2 382 3 0 188 0 187 -378 3 c-208 1 -381 0 -383 -2z" id="svg_6" fill="#ffffff" fill-opacity="1"/>
<path d="M70 1950 l0 -190 578 2 577 3 0 185 0 185 -577 3 -578 2 0 -190z" id="svg_7" fill="#ffffff" fill-opacity="1"/>
</g></g></svg>