<?xml version="1.0" encoding="UTF-8" standalone="no"?>
<svg
  xmlns:dc="http://purl.org/dc/elements/1.1/"
  xmlns:cc="http://creativecommons.org/ns#"
  xmlns:rdf="http://www.w3.org/1999/02/22-rdf-syntax-ns#"
  xmlns:svg="http://www.w3.org/2000/svg"
  xmlns="http://www.w3.org/2000/svg"
  viewBox="0 0 593.68823 169.742"
  height="169.742"
  width="593.68823"
  xml:space="preserve"
  version="1.1"
  id="svg2"
>
	<title id="title5633">Index.hu logo</title>
	<metadata id="metadata8">
		<rdf:RDF>
			<cc:Work rdf:about="">
				<dc:format>image/svg+xml</dc:format>
				<dc:type rdf:resource="http://purl.org/dc/dcmitype/StillImage" />
				<dc:title>Index.hu logo</dc:title>
			</cc:Work>
		</rdf:RDF>
	</metadata>
	<defs id="defs6">
		<clipPath id="clipPath24" clipPathUnits="userSpaceOnUse">
			<path id="path26" d="m 0,1241.89 595.276,0 L 595.276,0 0,0 0,1241.89 Z" />
		</clipPath>
	</defs>
	<g transform="matrix(1.25,0,0,-1.25,-96.61025,1286.421)" id="g10">
		<g transform="translate(303.1416,934.9048)" id="g28">
			<path
			  id="path30"
			  style="fill:#000917;fill-opacity:1;fill-rule:nonzero;stroke:none"
			  d="m 0,0 -13.425,0 c -5.969,0 -10.814,1.608 -14.542,4.826 -3.515,2.898 -5.272,6.659 -5.272,10.626 0,3.967 1.757,7.727 5.272,10.624 3.728,3.217 8.573,4.826 14.542,4.826 L 0,30.902 0,0 Z m 0,62.523 0,-20.302 -27.931,0 c -10.564,0 -19.261,-2.726 -26.088,-8.175 -6.51,-5.025 -9.764,-11.756 -9.764,-18.594 0,-6.839 3.254,-13.571 9.764,-18.596 6.827,-5.449 15.524,-8.176 26.088,-8.176 l 27.931,0 29.646,0 0,73.843 -29.646,0 z"
			/>
		</g>
		<path
		  id="path32"
		  style="fill:#f68712;fill-opacity:1;fill-rule:nonzero;stroke:none"
		  d="m 107.529,985.883 30.241,0 0,13.013 -30.241,0 0,-13.013 z"
		/>
		<path
		  id="path34"
		  style="fill:#000917;fill-opacity:1;fill-rule:nonzero;stroke:none"
		  d="m 107.899,923.584 29.646,0 0,53.541 -29.646,0 0,-53.541 z"
		/>
		<g transform="translate(374.2793,960.981)" id="g36">
			<path
			  id="path38"
			  style="fill:#000917;fill-opacity:1;fill-rule:nonzero;stroke:none"
			  d="m 0,0 c 3.729,3.217 8.573,4.826 14.542,4.826 l 31.079,0 0,11.319 -45.584,0 c -10.564,0 -19.262,-2.726 -26.09,-8.175 -6.51,-5.025 -9.763,-11.756 -9.763,-18.594 0,-6.839 3.253,-13.571 9.763,-18.596 6.828,-5.449 15.526,-8.176 26.09,-8.176 l 45.584,0 0,11.32 -31.079,0 c -5.969,0 -10.813,1.608 -14.542,4.826 -1.774,1.462 -3.098,3.146 -3.977,4.966 l 49.598,0 0,11.319 -49.598,0 C -3.098,-3.147 -1.774,-1.463 0,0"
			/>
		</g>
		<g transform="translate(227.3091,970.312)" id="g40">
			<path
			  id="path42"
			  style="fill:#000917;fill-opacity:1;fill-rule:nonzero;stroke:none"
			  d="m 0,0 c -3.262,3.046 -7.723,5.051 -13.388,6.011 -3.527,0.533 -9.031,0.802 -16.513,0.802 l -49.833,0 0,-53.541 29.646,0 0,42.223 14.387,0 c 2.748,0 5.261,-0.615 7.535,-1.845 2.274,-1.229 3.411,-2.751 3.411,-4.564 l 0,-35.814 29.645,0 0,36.389 C 4.89,-6.493 3.259,-3.046 0,0"
			/>
		</g>
		<g transform="translate(521.998,977.1255)" id="g44">
			<path
			  id="path46"
			  style="fill:#000917;fill-opacity:1;fill-rule:nonzero;stroke:none"
			  d="M 0,0 -35.252,0 -48.925,-11.695 -62.598,0 -97.85,0 l 31.299,-26.771 -31.299,-26.77 35.252,0 13.673,11.695 13.673,-11.695 35.252,0 -31.299,26.77 L 0,0 Z"
			/>
		</g>
	</g>
</svg>