<svg version="1.0" xmlns="http://www.w3.org/2000/svg" width="967" height="967" preserveAspectRatio="xMidYMid meet" style=""><rect id="backgroundrect" width="100%" height="100%" x="0" y="0" fill="none" stroke="none"/>
<metadata>
Created by potrace 1.15, written by Peter Selinger 2001-2017
</metadata>

<g class="currentLayer" style=""><title>Layer 1</title><rect fill="#eb1a1a" style="color: rgb(0, 0, 0);" stroke-dashoffset="" fill-rule="nonzero" id="svg_6" x="709.8548752459337" y="305.4273431953561" width="231.51281428337097" height="189.9060046672821" class="" fill-opacity="1"/><g transform="translate(0, 967) scale(0.1, -0.1)" fill="#000000" stroke="none" id="svg_1" class="selected" opacity="1">
<path d="M-25.641357421875,4800.812454223633 l0,-4835 l4835,0 l4835,0 l0,4835 l0,4835 l-4835,0 l-4835,0 l0,-4835 zm6750,844 c165,-13 168,-15 151,-135 c-11,-82 -38,-155 -61,-169 c-6,-3 -45,2 -88,12 c-61,14 -122,18 -297,18 l-220,0 l-47,-28 c-29,-17 -57,-45 -72,-72 l-26,-44 l0,-307 l0,-307 l30,-53 c28,-49 35,-54 93,-73 c110,-35 153,-35 507,-1 c58,5 112,7 121,5 c23,-7 47,-68 59,-147 c6,-37 13,-73 15,-80 c10,-27 -21,-51 -76,-59 c-30,-4 -81,-13 -114,-18 c-97,-17 -559,-14 -625,4 c-30,8 -77,20 -104,26 c-56,13 -159,63 -195,95 c-76,69 -98,100 -123,177 c-22,70 -23,82 -23,432 c0,257 3,369 12,390 c7,17 17,49 23,71 c7,29 27,58 69,100 c59,58 137,114 161,114 c6,0 46,12 88,26 c122,42 398,51 742,23 zm-6018,-33 c16,-19 17,-75 17,-698 l0,-678 l-23,-15 c-32,-21 -354,-21 -383,0 c-17,13 -18,46 -21,687 c-2,533 1,678 11,698 c12,25 14,25 177,30 c190,6 199,5 222,-24 zm1026,-9 c2,-18 -5,-33 -22,-48 c-14,-13 -26,-28 -26,-35 c0,-7 -8,-19 -18,-26 c-11,-7 -25,-24 -32,-38 c-7,-14 -26,-41 -41,-60 c-16,-19 -38,-46 -49,-60 c-12,-14 -34,-43 -50,-65 c-51,-69 -84,-114 -118,-158 c-60,-77 -77,-98 -100,-122 c-31,-32 -32,-78 -1,-109 c33,-35 88,-102 158,-197 c22,-30 52,-67 66,-84 c47,-55 79,-96 160,-204 c17,-22 51,-64 78,-93 c29,-32 46,-61 45,-73 c-3,-19 -12,-20 -188,-23 c-262,-4 -254,-6 -326,80 c-32,40 -67,84 -76,100 c-10,15 -24,35 -33,45 c-30,34 -170,220 -190,252 c-5,9 -19,26 -30,38 c-11,12 -33,40 -50,63 c-16,23 -42,56 -57,74 c-39,46 -39,106 0,152 c15,18 40,50 55,71 c54,74 83,113 137,188 c30,42 69,94 85,115 c17,21 41,55 55,75 c14,20 40,54 58,77 c17,22 32,44 32,49 c0,5 16,17 35,26 c30,16 61,18 237,17 l203,-1 l3,-26 zm1290,24 c21,-6 35,-23 64,-82 c21,-40 38,-81 38,-89 c0,-8 14,-42 30,-75 c17,-33 30,-65 30,-72 c0,-6 11,-33 25,-59 c14,-26 25,-55 25,-64 c0,-9 11,-38 25,-64 c14,-26 25,-53 25,-60 c0,-7 11,-35 25,-62 c14,-27 30,-67 36,-89 c5,-22 18,-51 28,-65 c25,-34 35,-94 19,-107 c-7,-6 -58,-15 -113,-21 c-128,-13 -395,-57 -505,-82 c-47,-10 -119,-24 -160,-30 c-41,-6 -95,-18 -120,-25 c-25,-8 -79,-19 -120,-26 c-41,-6 -85,-17 -96,-24 c-12,-8 -50,-21 -85,-30 c-35,-9 -79,-26 -96,-37 c-18,-10 -43,-18 -55,-16 c-20,3 -23,8 -21,41 c1,21 14,57 28,81 c14,23 25,49 25,57 c0,8 9,33 21,54 c11,22 27,62 36,89 c8,27 21,59 29,71 c8,12 20,41 28,66 c16,49 58,153 87,215 c10,22 19,47 19,55 c0,8 14,41 30,74 c16,33 30,67 30,75 c0,8 9,29 19,47 c11,17 25,50 32,73 c21,69 73,164 96,175 c25,13 476,18 521,6 zm1892,-19 c176,-31 267,-88 326,-206 l29,-59 l0,-201 l0,-201 l-33,-60 c-17,-33 -44,-70 -60,-83 c-15,-12 -40,-33 -55,-46 c-16,-14 -41,-28 -57,-31 c-47,-10 -55,-29 -28,-67 c13,-18 29,-37 36,-41 c7,-5 18,-15 25,-23 c6,-8 35,-39 62,-68 c28,-29 74,-80 103,-112 c30,-33 79,-85 109,-116 c85,-86 80,-88 -184,-88 c-165,0 -220,3 -241,14 c-15,8 -81,72 -147,143 c-66,70 -155,164 -197,208 l-77,80 l-109,3 c-93,3 -110,1 -123,-14 c-11,-13 -14,-59 -15,-212 c-2,-176 -4,-197 -20,-209 c-13,-10 -65,-13 -196,-13 c-165,0 -179,1 -198,20 c-19,19 -20,31 -18,252 c3,193 5,232 18,239 c71,36 108,48 183,58 c95,13 117,19 117,31 c0,22 -116,24 -252,4 c-41,-6 -47,-4 -58,15 c-14,28 -13,720 1,768 c6,17 18,34 27,37 c9,2 220,3 467,1 c393,-3 464,-6 565,-23 zm2713,-3 c15,0 38,1 52,1 c60,0 87,0 113,1 c15,1 36,0 47,-1 c11,-1 74,-1 141,1 c66,1 126,-1 132,-5 c6,-4 21,-2 33,5 c17,9 31,8 61,-2 c29,-9 41,-10 50,-1 c15,15 51,15 66,0 c35,-35 -8,-79 -59,-58 c-22,10 -36,10 -57,1 c-20,-8 -36,-9 -54,-2 c-14,5 -38,7 -52,3 c-14,-4 -78,-4 -143,-1 c-65,3 -128,2 -140,-2 c-12,-5 -36,-3 -53,3 c-26,8 -34,7 -50,-7 c-13,-12 -17,-23 -11,-34 c5,-9 9,-64 8,-122 c0,-62 5,-114 12,-127 c11,-21 13,-21 37,-5 c19,12 33,14 57,7 c18,-5 84,-7 147,-3 c63,3 125,2 137,-2 c12,-5 35,-3 53,4 c28,11 33,10 46,-7 c19,-26 18,-60 -2,-77 c-12,-10 -22,-10 -46,-1 c-17,6 -35,9 -40,5 c-6,-3 -84,-6 -175,-7 c-120,-1 -171,3 -184,12 c-15,11 -20,9 -30,-10 c-14,-27 -19,-153 -8,-186 c5,-13 4,-32 -2,-46 c-8,-18 -8,-33 -1,-56 c8,-22 8,-37 0,-55 c-15,-33 -33,-37 -60,-15 c-21,17 -25,17 -49,3 c-33,-19 -74,-11 -90,18 c-9,17 -7,26 9,48 c17,24 18,29 6,46 c-17,23 -18,57 -3,72 c8,8 8,21 -2,47 c-9,26 -10,41 -2,59 c7,15 8,39 4,63 c-10,48 -7,192 4,218 c5,11 4,26 -3,37 c-17,27 -15,50 8,74 l20,22 l-20,18 c-11,10 -20,26 -20,35 c0,21 39,41 65,33 c11,-3 32,-5 48,-4 zm928,1 c23,-13 26,-58 4,-66 c-18,-7 -20,-30 -4,-40 c7,-4 38,-6 69,-5 c71,2 89,-13 70,-59 c-18,-45 1,-64 56,-56 c52,7 69,-9 60,-58 c-5,-24 -2,-39 11,-55 c16,-19 21,-20 49,-9 c27,10 36,9 59,-6 c26,-17 27,-17 41,1 c10,12 13,32 9,65 c-5,40 -3,49 14,58 c13,7 28,7 46,0 c46,-18 66,2 63,63 l-3,52 l45,1 c69,2 84,4 100,14 c12,8 11,13 -8,33 c-12,13 -22,28 -22,34 c0,20 30,43 56,43 c28,0 42,-39 26,-74 c-6,-13 -7,-29 -1,-37 c4,-8 8,-152 7,-320 c0,-169 2,-311 6,-317 c3,-6 2,-21 -3,-34 c-8,-22 -13,-23 -97,-23 c-49,1 -95,5 -103,9 c-9,6 -11,20 -7,45 c3,20 6,43 6,51 c-1,8 -2,65 -3,125 c-1,61 -6,116 -11,123 c-6,10 -21,12 -56,7 c-37,-5 -51,-3 -64,11 c-15,14 -19,15 -27,3 c-11,-18 -12,-25 -13,-78 c-1,-30 -6,-47 -18,-55 c-29,-18 -54,5 -51,45 c2,19 1,48 -2,66 c-6,31 -6,31 -33,17 c-17,-9 -42,-12 -67,-9 c-22,3 -46,2 -53,-3 c-10,-7 -16,-178 -11,-321 c2,-39 -14,-45 -76,-33 c-47,10 -60,9 -80,-4 c-20,-13 -25,-13 -37,-1 c-12,12 -14,72 -11,353 c1,187 3,346 3,354 c1,8 -2,27 -6,43 c-11,46 23,70 67,47 zm-5083,-1012 c16,-29 33,-69 37,-88 c4,-19 18,-53 31,-76 c13,-22 24,-48 24,-56 c0,-8 11,-37 26,-63 c14,-26 24,-60 22,-74 l-3,-26 l-194,-3 c-161,-2 -198,0 -217,13 c-13,9 -24,23 -24,32 c0,8 -9,30 -19,47 c-11,17 -25,54 -31,81 c-13,57 -49,101 -91,110 c-36,8 -40,42 -6,50 c12,3 44,9 70,15 c27,6 58,17 70,24 c12,8 62,22 112,31 c49,9 96,21 105,25 c36,22 58,11 88,-42 zm4210,10 c9,-8 12,-51 11,-167 c-1,-149 0,-156 21,-173 c15,-12 30,-16 47,-12 c16,4 28,2 33,-6 c19,-31 0,-35 -143,-33 c-171,1 -157,0 -157,18 c0,8 12,17 28,21 c66,15 72,26 72,129 c0,93 0,95 -30,117 c-16,12 -30,27 -30,34 c0,6 19,30 42,53 c43,43 70,48 106,19 zm1455,11 l100,2 l42,-41 l42,-41 l-3,-93 l-2,-93 l-72,-73 c-61,-61 -76,-71 -98,-67 c-15,3 -36,1 -47,-3 c-29,-11 -45,-1 -45,26 c0,21 5,24 35,24 c62,0 153,101 113,126 c-6,4 -55,6 -107,5 l-96,-1 l-52,48 c-67,62 -69,86 -10,137 c45,40 77,56 91,47 c5,-3 54,-4 109,-3 zm-921,-40 l38,-39 l0,-123 l0,-123 l-37,-36 c-36,-34 -60,-42 -115,-39 c-29,2 -20,24 17,49 l35,22 l0,123 c0,67 -4,127 -8,133 c-4,6 -22,16 -41,22 c-29,10 -40,9 -70,-5 l-36,-18 l-3,-127 c-2,-117 -1,-128 17,-137 c38,-21 53,-42 40,-57 c-24,-29 -80,-10 -132,45 c-28,29 -29,32 -29,148 l-1,118 l34,36 c19,20 41,39 49,41 c8,3 57,6 109,6 l94,1 l39,-40 zm463,16 c0,-18 -7,-20 -85,-21 c-112,0 -114,-1 -141,-23 c-20,-16 -21,-21 -10,-35 c11,-13 34,-16 120,-16 l107,0 l42,-39 c41,-38 42,-41 42,-104 c0,-64 -1,-65 -45,-106 c-40,-37 -49,-41 -82,-36 c-63,9 -97,10 -130,1 c-52,-12 -108,9 -132,50 c-12,20 -19,40 -16,45 c10,16 63,10 77,-9 c7,-10 34,-28 60,-41 c46,-22 49,-22 102,-7 c29,9 57,23 60,32 c11,28 6,140 -6,152 c-8,8 -52,12 -127,13 c-64,1 -129,4 -146,8 c-28,6 -30,10 -36,66 c-11,97 -15,95 179,92 c160,-2 167,-3 167,-22 zm-6277,-207 c3,-36 -46,-154 -72,-170 c-20,-13 -391,-9 -404,4 c-17,17 -15,39 6,68 c9,14 24,43 32,65 l16,40 l95,-4 c94,-3 240,13 269,30 c32,19 55,6 58,-33 z" id="svg_2" opacity="1"/>
<path d="M2738.3585815429688,5280.812454223633 c-7,-19 -14,-40 -14,-47 c0,-8 -7,-23 -14,-34 c-8,-12 -20,-43 -27,-70 c-6,-27 -20,-62 -29,-79 c-10,-16 -21,-46 -25,-65 c-4,-19 -18,-59 -32,-89 c-33,-72 -39,-113 -19,-130 c20,-17 353,-16 373,1 c20,17 15,53 -17,125 c-16,36 -30,73 -30,82 c0,9 -9,35 -20,56 c-12,22 -26,60 -32,85 c-6,25 -19,61 -28,80 c-9,19 -20,48 -24,65 c-15,63 -40,71 -62,20 z" id="svg_3" opacity="1"/>
<path d="M4291.359069824219,5323.812454223633 c-22,-33 -24,-344 -3,-373 c14,-19 27,-20 234,-20 l219,0 l42,30 c24,16 47,40 52,53 c15,40 11,229 -6,262 c-30,59 -57,65 -302,68 l-221,4 l-15,-24 z" id="svg_4" opacity="1"/>
<path d="M9031.358337402344,4552.812454223633 c-37,-16 -39,-19 -33,-50 c10,-51 38,-67 115,-67 c39,0 74,5 83,13 c23,18 30,70 13,95 c-21,29 -123,34 -178,9 z" id="svg_5" opacity="1"/>
</g></g></svg>