<svg version="1.0" xmlns="http://www.w3.org/2000/svg" width="700.000000" height="368.000000" preserveAspectRatio="xMidYMid meet" style=""><rect id="backgroundrect" width="100%" height="100%" x="0" y="0" fill="none" stroke="none"/>
<metadata>
Created by potrace 1.12, written by Peter Selinger 2001-2015
</metadata>

<g class="currentLayer" style=""><title>Layer 1</title><g transform="translate(0, 368) scale(0.1, -0.1)" fill="#009899" stroke="#2a5684" id="svg_1" class="selected" fill-opacity="1" stroke-opacity="1">
<path d="M2630 2438 c-48 -25 -90 -89 -90 -138 0 -24 27 -88 52 -122 19 -26 3 -33 -72 -33 -60 0 -74 4 -111 30 -51 36 -77 77 -87 137 l-8 43 -422 3 -422 2 2 -562 3 -563 690 0 690 0 3 556 2 556 -22 33 c-53 77 -130 98 -208 58z m-634 -272 c13 -22 66 -130 119 -241 l97 -201 -75 -165 c-41 -90 -80 -164 -86 -164 -9 0 -159 314 -249 522 -15 35 -30 63 -34 63 -5 0 -8 -119 -8 -263 0 -295 -1 -292 70 -299 26 -2 35 -8 35 -21 0 -18 -10 -19 -135 -19 -124 0 -135 2 -135 18 0 14 10 20 35 24 20 4 41 10 48 14 9 5 12 90 12 342 l0 335 -25 24 c-13 14 -35 25 -49 25 -28 0 -40 14 -32 36 5 12 36 14 198 12 l192 -3 22 -39z m742 -183 c-2 -9 -19 -22 -38 -28 l-35 -12 -3 -248 c-1 -151 1 -252 7 -258 6 -6 27 -13 48 -16 28 -5 38 -11 38 -25 0 -17 -14 -18 -230 -17 -214 0 -230 1 -230 18 0 13 11 19 38 24 21 3 42 10 48 16 6 6 8 108 7 259 l-3 249 -35 11 c-19 6 -36 19 -38 28 -3 14 19 16 213 16 196 0 216 -2 213 -17z" id="svg_2" fill="#009899" fill-opacity="1" stroke="#2a5684"/>
<path d="M3183 2209 c-18 -5 -35 -14 -38 -19 -9 -14 -25 -12 -22 3 1 8 -18 13 -67 15 -76 3 -107 -11 -62 -28 l27 -10 -3 -112 c-3 -105 -4 -113 -23 -113 -11 0 -20 -7 -20 -15 0 -12 17 -15 94 -15 61 0 96 4 98 11 2 6 -5 14 -17 17 -18 5 -20 13 -20 100 0 88 2 97 22 111 60 42 88 5 88 -117 0 -81 -2 -89 -20 -94 -12 -3 -19 -11 -17 -17 5 -15 169 -15 174 0 2 6 -5 14 -17 17 -18 5 -20 13 -20 96 0 78 3 94 20 111 23 23 62 26 78 7 7 -7 13 -66 14 -133 l3 -119 50 0 50 0 3 126 c2 109 0 129 -15 148 -35 43 -128 47 -185 7 -20 -14 -24 -14 -43 3 -25 23 -89 33 -132 20z" id="svg_3" fill="#009899" fill-opacity="1" stroke="#2a5684"/>
<path d="M3711 2209 c-60 -12 -77 -26 -55 -50 16 -18 17 -18 42 1 30 24 113 28 131 6 18 -21 10 -82 -9 -77 -39 12 -114 12 -141 1 -40 -17 -59 -47 -59 -91 0 -56 44 -89 116 -89 31 0 64 5 75 11 15 7 24 7 34 -1 18 -15 147 -9 152 7 2 6 -6 13 -19 15 -22 3 -23 8 -28 110 -6 130 -15 143 -105 158 -68 11 -73 11 -134 -1z m209 -170 c0 -72 -3 -91 -16 -96 -28 -10 -35 12 -36 109 -1 110 6 132 34 99 14 -19 18 -41 18 -112z m-99 21 c14 -8 19 -21 19 -48 0 -46 -14 -62 -55 -62 -40 0 -55 16 -55 56 0 50 46 77 91 54z m-121 -61 c0 -53 -4 -57 -32 -32 -22 20 -23 51 -2 74 24 27 34 14 34 -42z" id="svg_4" fill="#009899" fill-opacity="1" stroke="#2a5684"/>
<path d="M4128 2210 c-70 -13 -108 -67 -108 -152 0 -100 57 -153 159 -146 31 2 64 8 74 12 15 7 17 3 17 -32 0 -29 -7 -49 -26 -72 -16 -18 -23 -35 -18 -40 16 -16 91 10 121 42 28 29 28 30 33 191 l5 162 38 0 39 0 71 -134 70 -134 -24 -46 c-15 -28 -33 -47 -47 -51 -48 -11 -20 -25 48 -25 66 0 102 16 53 23 -13 2 -23 7 -23 10 0 21 175 340 196 358 32 26 23 34 -42 34 -58 0 -79 -15 -41 -29 l25 -10 -40 -75 c-21 -42 -42 -76 -46 -76 -7 0 -82 140 -82 152 0 3 9 8 21 11 12 3 18 10 14 16 -8 14 -327 15 -341 1 -6 -6 -24 -4 -49 5 -44 16 -45 16 -97 5z m117 -52 c20 -18 27 -35 32 -78 11 -106 -43 -169 -105 -123 -49 36 -55 160 -11 204 25 25 52 24 84 -3z m100 -135 c0 -131 -2 -155 -17 -170 -10 -9 -20 -15 -22 -12 -7 7 -8 130 0 196 3 35 2 74 -4 91 -11 33 1 55 28 50 13 -3 15 -27 15 -155z m220 101 c13 -30 38 -76 55 -101 30 -44 34 -79 8 -71 -17 6 -120 200 -114 215 10 26 27 12 51 -43z m-457 5 c-11 -31 -7 -120 7 -151 5 -13 3 -18 -7 -18 -54 0 -75 135 -29 184 30 32 43 25 29 -15z" id="svg_5" fill="#009899" fill-opacity="1" stroke="#2a5684"/>
<path d="M4921 2210 c-58 -12 -69 -24 -46 -49 17 -20 18 -20 43 -1 28 23 101 27 120 8 7 -7 12 -27 12 -44 0 -34 -14 -52 -25 -34 -10 15 -112 12 -145 -5 -36 -19 -50 -43 -50 -88 0 -54 45 -87 116 -87 31 0 64 5 75 11 15 7 24 7 34 -1 17 -14 137 -9 142 6 2 6 -5 14 -17 17 -18 5 -20 13 -20 107 0 56 -4 110 -10 120 -19 35 -144 57 -229 40z m209 -171 c0 -72 -3 -91 -16 -96 -28 -10 -35 12 -36 109 -1 110 6 132 34 99 14 -19 18 -41 18 -112z m-96 18 c13 -10 17 -24 14 -57 -3 -44 -4 -45 -41 -48 -48 -4 -67 11 -67 54 0 52 53 81 94 51z m-122 -53 c4 -53 -5 -63 -33 -38 -21 19 -24 36 -9 65 19 34 38 22 42 -27z" id="svg_6" fill="#009899" fill-opacity="1" stroke="#2a5684"/>
<path d="M5423 2205 c-18 -8 -33 -19 -33 -25 0 -18 -17 -11 -23 10 -4 17 -14 20 -70 20 -70 0 -95 -14 -53 -30 26 -9 26 -11 26 -120 0 -110 0 -110 -27 -121 -49 -18 -10 -30 93 -27 80 2 99 6 99 18 0 10 -8 14 -27 12 -14 -1 -29 2 -33 7 -3 6 -3 51 1 101 6 82 9 93 32 108 23 15 25 15 42 -8 l17 -23 33 23 c31 22 31 23 13 40 -27 26 -54 31 -90 15z m-85 -37 c6 -8 8 -52 3 -118 -5 -84 -9 -105 -21 -105 -12 0 -16 20 -18 104 -1 58 0 111 2 118 7 16 21 17 34 1z" id="svg_7" fill="#009899" fill-opacity="1" stroke="#2a5684"/>
<path d="M3405 1870 c-3 -5 5 -14 19 -20 25 -9 26 -12 26 -101 0 -83 -2 -90 -17 -84 -39 16 -119 17 -156 2 -57 -24 -79 -68 -75 -151 4 -64 6 -70 40 -101 45 -41 98 -52 159 -31 28 10 47 12 53 6 13 -13 143 -13 151 0 3 6 -5 14 -19 20 l-26 9 -2 228 -3 228 -72 3 c-42 2 -74 -1 -78 -8z m120 -240 c0 -208 -1 -215 -20 -215 -19 0 -20 7 -20 213 0 118 2 216 5 218 2 3 11 3 20 2 13 -3 15 -32 15 -218z m-85 -17 c19 -24 21 -38 18 -95 -5 -94 -46 -131 -108 -98 -42 22 -51 142 -15 197 23 34 77 32 105 -4z m-145 0 c-13 -35 -17 -122 -7 -151 11 -33 7 -43 -14 -35 -43 16 -57 117 -24 171 21 34 58 46 45 15z" id="svg_8" fill="#009899" fill-opacity="1" stroke="#2a5684"/>
<path d="M4051 1841 l-24 -18 37 -28 36 -28 -2 -175 c-3 -175 -3 -176 -26 -182 -50 -11 -18 -25 65 -28 89 -3 121 7 84 27 -28 16 -29 71 -1 96 12 11 24 15 28 9 22 -25 72 -92 72 -97 0 -2 -9 -7 -21 -10 -47 -13 -4 -27 81 -27 88 0 117 10 82 29 -10 5 -47 44 -82 87 l-64 77 45 38 c29 26 52 38 69 36 17 -1 25 3 25 13 0 12 -15 15 -79 15 -55 0 -81 -4 -83 -12 -3 -8 4 -13 16 -13 12 0 21 -4 21 -9 0 -8 -114 -101 -124 -101 -3 0 -6 58 -6 130 l0 130 -32 13 c-18 8 -39 21 -47 30 -17 22 -40 21 -70 -2z m107 -64 c16 -19 20 -343 5 -358 -27 -27 -33 4 -33 187 0 101 4 184 9 184 5 0 13 -6 19 -13z m186 -290 c42 -51 51 -77 26 -77 -10 0 -90 116 -90 131 0 19 17 5 64 -54z" id="svg_9" fill="#009899" fill-opacity="1" stroke="#2a5684"/>
<path d="M3033 1830 c-34 -14 -57 -54 -43 -79 23 -44 81 -54 124 -20 14 11 26 31 26 43 0 42 -61 74 -107 56z m62 -55 c0 -13 -8 -21 -24 -23 -28 -4 -46 11 -37 33 9 25 61 16 61 -10z" id="svg_10" fill="#009899" fill-opacity="1" stroke="#2a5684"/>
<path d="M3761 1761 c-20 -38 -19 -51 4 -51 15 0 105 70 105 81 0 5 -20 9 -45 9 -42 0 -46 -2 -64 -39z" id="svg_11" fill="#009899" fill-opacity="1" stroke="#2a5684"/>
<path d="M3886 1763 c-40 -64 -11 -72 61 -17 27 20 50 40 51 45 2 5 -17 9 -42 9 -42 0 -48 -3 -70 -37z" id="svg_12" fill="#009899" fill-opacity="1" stroke="#2a5684"/>
<path d="M2975 1670 c-9 -14 1 -25 23 -25 15 0 17 -14 17 -115 0 -112 -1 -115 -22 -118 -13 -2 -23 -10 -23 -18 0 -11 20 -14 99 -14 100 0 134 12 87 30 -25 9 -25 11 -28 137 l-3 128 -72 3 c-44 2 -74 -1 -78 -8z" id="svg_13" fill="#009899" fill-opacity="1" stroke="#2a5684"/>
<path d="M3720 1658 c-82 -42 -112 -123 -72 -198 59 -110 287 -114 352 -7 26 42 26 110 0 153 -45 72 -187 99 -280 52z m159 -27 c37 -37 39 -150 5 -199 -23 -34 -86 -31 -114 6 -19 23 -21 37 -18 101 3 62 7 76 27 92 30 24 76 24 100 0z m-159 -106 c0 -49 -4 -85 -10 -85 -19 0 -45 54 -44 92 1 36 26 78 46 78 4 0 8 -38 8 -85z m256 51 c20 -41 13 -95 -16 -121 -11 -10 -20 -16 -21 -14 0 2 -1 41 -2 87 -2 91 11 108 39 48z" id="svg_14" fill="#009899" fill-opacity="1" stroke="#2a5684"/>
</g></g></svg>