<?xml version="1.0" encoding="UTF-8" standalone="no"?>
<!-- Created with Inkscape (http://www.inkscape.org/) -->
<svg
   xmlns:svg="http://www.w3.org/2000/svg"
   xmlns="http://www.w3.org/2000/svg"
   version="1.0"
   width="1012.5183"
   height="373.51642"
   id="Logo_RTL_Klub"
   xml:space="preserve"><defs
     id="defs5" /><path
     d="M 48.793919,18 C 265.52307,18 482.22755,18 698.93202,18 C 780.81343,18 862.69484,18 944.57489,18 C 950.80037,18 957.00281,18 963.20525,18 C 963.20525,88.277588 963.20525,158.55518 963.20525,228.83276 C 923.3272,228.83276 883.47084,228.83276 843.59279,228.83276 C 657.92084,228.83276 472.27599,228.83276 286.60539,228.83276 C 207.34403,228.83276 128.08009,228.83276 48.793919,228.83276 C 48.793919,158.53078 48.793919,88.277588 48.793919,18"
     id="box"
     style="fill:#d21818;fill-opacity:1;fill-rule:evenodd;stroke:none" /><path
     d="M 245.47764,115.27907 C 250.92375,112.16836 253.56548,105.4468 253.495,99.008512 C 253.37708,92.923996 249.81501,86.579237 244.20489,84.315672 C 241.1606,83.065967 232.95484,83.797899 229.03901,83.797899 L 187.13324,83.678621 C 187.13324,83.678621 187.34469,108.48838 187.34469,116.15197 C 202.22458,116.15197 217.08278,116.15197 231.96402,116.15197 C 234.03918,116.10588 243.84977,116.17636 245.47764,115.27907 z M 545.00691,184.87352 C 540.40794,184.87352 536.35114,184.80304 534.98352,184.80304 L 451.64096,184.80304 C 451.64096,150.96071 451.64096,117.14414 451.64096,83.301812 L 371.22206,83.301812 C 371.22206,74.976773 371.22206,66.628692 371.22206,58.302297 L 639.4084,58.302297 C 639.4084,64.836816 639.4084,71.367268 639.4084,77.924829 C 639.4084,80.119267 639.33928,85.729384 639.33928,85.729384 C 639.33928,85.729384 624.52851,85.683299 618.32607,85.753781 L 580.09758,85.753781 C 575.19229,85.848661 562.71693,85.729384 562.71693,85.729384 C 562.71693,85.729384 562.92973,94.833794 562.92973,98.016339 C 562.92973,102.75763 562.92973,107.49756 562.92973,112.23885 C 562.92973,129.87839 562.92973,147.54232 562.92973,165.18186 C 562.92973,169.05026 562.92973,184.47232 562.92973,184.47232 C 562.92973,184.47232 552.6461,184.87352 545.00691,184.87352 z M 663.93487,184.80304 C 663.93487,142.1423 663.93487,99.478846 663.93487,56.841146 L 781.1672,56.322017 C 781.1672,56.322017 781.11976,73.985955 781.11976,81.344574 C 781.11976,107.18988 781.11976,132.9918 781.11976,158.81406 L 934.07981,158.81406 C 934.07981,162.25821 933.93885,184.23647 933.93885,184.23647 L 663.93487,184.80304 z M 269.22474,186.76028 C 266.63181,186.76028 263.32998,187.04356 261.01898,186.33603 C 260.73569,186.19507 260.42937,186.0541 260.14608,185.91043 C 259.95632,185.79386 259.79232,185.65289 259.60391,185.53362 C 259.43855,185.39265 259.25015,185.22864 259.08478,185.08632 C 249.98173,177.04457 240.47747,167.56471 231.8461,158.93334 C 227.43554,154.52278 218.71065,142.63703 212.90806,142.28326 C 209.63064,142.07046 188.09966,142.40119 188.05222,142.73055 C 188.00478,142.96775 188.05222,186.76028 188.05222,186.76028 C 188.05222,186.76028 181.77795,186.76028 179.021,186.76028 C 173.4773,186.76028 167.91327,186.76028 162.34694,186.76028 L 83.414397,186.76028 C 83.414397,156.52746 83.602937,58.822782 83.602937,58.822782 L 295.21507,58.799739 C 302.90306,58.799739 312.00476,58.113893 318.75073,59.812244 C 332.71028,63.302471 344.24362,76.132953 347.00327,90.211784 C 347.6864,93.631529 347.66336,97.617843 347.66336,101.46048 C 347.66336,107.09771 346.88399,112.37845 344.94979,117.02622 C 343.13488,121.27142 340.54194,125.06797 337.63997,128.69916 C 333.27685,134.14663 326.53224,137.09468 320.59004,139.94786 C 315.28219,142.51911 305.80368,142.77799 305.51904,143.13176 C 322.24095,155.46616 364.31344,186.97308 364.31344,186.97308 C 364.31344,186.97308 274.62477,186.76028 269.22474,186.76028"
     id="RTL"
     style="fill:#ffffff;fill-opacity:1;fill-rule:evenodd;stroke:none" /><path
     d="M 881.13544,300.02933 L 915.45081,300.02933 C 916.86452,299.32316 925.237,300.71518 929.41036,296.28022 C 930.96639,294.63066 931.98161,292.64903 931.95857,290.2201 C 931.91113,286.65939 929.15148,284.27655 926.10854,283.19221 C 920.47403,281.18753 912.83212,281.40033 906.1336,281.40033 L 881.13544,281.40033 C 881.13544,287.60141 881.13544,293.82689 881.13544,300.02933 z M 920.35475,337.29141 C 921.65189,337.12604 922.99648,336.96204 924.29362,336.79667 C 925.70869,336.37243 927.12376,335.94682 928.56187,335.49953 C 932.78267,333.94214 935.99097,330.99544 935.91913,326.01967 C 935.85,322.83577 934.50406,319.76843 931.88538,318.024 C 925.82661,313.9672 915.85066,314.74522 907.61915,314.74522 L 881.13544,314.74522 C 881.13544,322.27055 881.13544,329.79182 881.13544,337.29141 L 920.35475,337.29141 z M 853.56739,352.97506 C 853.56739,324.22643 853.56739,295.45476 853.56739,266.68309 L 901.60647,266.68309 C 917.50157,266.68309 934.3875,265.69227 947.07566,271.37694 C 960.51744,277.39097 963.4411,294.06409 950.77733,302.64802 C 949.00714,303.82724 945.58875,305.9024 943.27775,305.9024 C 943.27775,306.06777 943.27775,306.25617 943.27775,306.39849 C 960.01999,309.17983 970.79971,326.32599 958.27691,340.52275 C 955.54166,343.61177 951.79119,345.52156 948.27657,347.24296 C 935.4244,353.49284 918.30263,352.97506 902.1012,352.97506 L 853.56739,352.97506 M 327.59354,266.68309 C 336.74403,266.68309 345.89453,266.68309 355.04502,266.68309 C 355.04502,290.05474 355.04502,313.42638 355.04502,336.79667 C 376.92976,336.79667 398.8389,336.79667 420.74804,336.79667 C 420.74804,342.1967 420.74804,347.57504 420.74804,352.97506 C 389.68841,352.97506 358.65182,352.97506 327.59354,352.97506 C 327.59354,324.22643 327.59354,295.45476 327.59354,266.68309 M 54.005946,266.68309 C 63.132856,266.68309 72.306258,266.68309 81.456481,266.68309 C 81.456481,278.28556 81.456481,289.88938 81.456481,301.49184 C 82.069677,301.49184 82.424393,301.79952 82.424393,300.99575 C 94.80433,292.76695 107.1863,284.51375 119.54292,276.25784 C 123.19946,273.82891 129.75418,268.3584 133.55154,267.13174 C 136.26349,266.23445 140.60289,266.68309 143.71617,266.68309 C 151.73434,266.68309 159.75265,266.68309 167.74791,266.68309 C 167.74791,266.84845 167.74791,267.01382 167.74791,267.17918 C 167.58119,267.17918 167.41705,267.17918 167.25196,267.17918 C 151.07465,277.79083 134.91863,288.42822 118.74132,299.03987 C 118.01075,299.51156 116.10041,300.80735 116.24124,301.82392 C 116.50175,302.26986 116.76118,302.7185 117.01952,303.16715 C 134.73009,318.77897 152.46505,334.39079 170.17684,350.00261 C 170.88437,350.52309 172.65185,351.63048 172.65185,352.47762 C 172.81857,352.47762 172.98122,352.47762 173.14794,352.47762 C 173.14794,352.64298 173.14794,352.8097 173.14794,352.97506 C 164.79945,352.97506 156.47414,352.97506 148.1266,352.95067 C 145.509,352.95067 141.73386,353.35187 139.56517,352.43289 C 136.47629,351.11135 133.95289,347.50184 131.28757,345.35756 C 122.32589,337.29141 113.38847,329.24965 104.4501,321.16181 C 102.46887,319.41602 98.389844,314.65169 95.985043,314.1556 C 94.30865,313.80319 91.408305,316.0898 90.112109,316.9627 C 87.870367,318.4252 83.602937,320.12355 82.117253,322.55248 C 81.031826,324.27387 81.456481,328.14091 81.456481,330.42887 C 81.456481,337.9515 81.456481,345.47412 81.456481,352.97506 C 72.306258,352.97506 63.156034,352.97506 54.005946,352.97506 C 54.005946,324.22643 54.005946,295.45476 54.005946,266.68309 M 577.64426,266.18836 C 586.96011,266.18836 596.27733,266.18836 605.59047,266.18836 C 605.59047,279.74942 605.59047,293.33216 605.59047,306.89187 C 605.66367,312.9303 605.73279,318.96737 605.82767,324.98141 C 606.41728,328.56516 608.0682,331.72602 610.63944,334.15494 C 616.98149,340.12154 627.57009,339.74337 636.97948,339.74337 C 638.27798,339.55497 639.59681,339.41401 640.89395,339.24864 C 642.33342,338.82439 643.77153,338.40015 645.18795,337.97454 C 647.63992,337.12604 649.90348,336.06474 651.9312,334.53175 C 660.06784,328.44859 657.63891,313.66087 657.63891,302.48266 C 657.63891,298.96803 657.63891,266.58957 657.63891,266.58957 C 657.63891,266.58957 680.27862,266.51909 684.97247,266.51909 C 684.97247,280.55048 685.01856,294.29994 685.01856,308.35437 C 685.01856,315.19386 685.67865,323.21257 684.33542,329.39197 C 683.39204,333.75374 681.31553,337.7387 678.43931,341.01748 C 661.29314,360.42721 595.5454,361.48715 581.63057,337.24397 C 576.44335,328.21139 577.64426,315.33618 577.64426,303.45043 C 577.64426,291.02251 577.64426,278.61764 577.64426,266.18836"
     id="KLUB"
     style="fill:#0c4907;fill-opacity:1;fill-rule:evenodd;stroke:none" /></svg>